# MagicaVoxel @ Ephtracy

# group
o 

# material
mtllib cesped.mtl
usemtl palette

# normals
vn -1 0 0
vn 1 0 0
vn 0 0 1
vn 0 0 -1
vn 0 -1 0
vn 0 1 0

# texcoords
vt 0.337891 0.5
vt 0.341797 0.5
vt 0.591797 0.5
vt 0.607422 0.5

# verts
v 0 2 0
v 0 2 -0.8
v 0 2.1 -0.1
v 0 2.1 -0.2
v 0 2.1 -0.6
v 0 2.1 -0.7
v 0 2.2 -0.1
v 0 2.2 -0.2
v 0 2.2 -0.6
v 0 2.2 -0.7
v 0 2.3 -0.2
v 0 2.3 -0.3
v 0 2.4 -0.2
v 0 2.4 -0.3
v 0 2.4 -0.5
v 0 2.4 -0.6
v 0 2.5 -0.2
v 0 2.5 -0.3
v 0 2.5 -0.5
v 0 2.5 -0.6
v 0 2.5 -0.7
v 0 2.6 0
v 0 2.6 -0.2
v 0 2.6 -0.3
v 0 2.6 -0.5
v 0 2.6 -0.6
v 0 2.6 -0.7
v 0 2.6 -0.8
v 0 2.7 -0.5
v 0 2.7 -0.6
v 0 2.8 0
v 0 2.8 -0.8
v 0.8 2 0
v 0.8 2 -0.8
v 0.8 2.1 -0.1
v 0.8 2.1 -0.2
v 0.8 2.1 -0.6
v 0.8 2.1 -0.7
v 0.8 2.2 -0.1
v 0.8 2.2 -0.2
v 0.8 2.2 -0.6
v 0.8 2.2 -0.7
v 0.8 2.3 -0.2
v 0.8 2.3 -0.3
v 0.8 2.4 -0.2
v 0.8 2.4 -0.3
v 0.8 2.4 -0.5
v 0.8 2.4 -0.6
v 0.8 2.5 -0.2
v 0.8 2.5 -0.3
v 0.8 2.5 -0.5
v 0.8 2.5 -0.6
v 0.8 2.5 -0.7
v 0.8 2.6 0
v 0.8 2.6 -0.2
v 0.8 2.6 -0.3
v 0.8 2.6 -0.5
v 0.8 2.6 -0.7
v 0.8 2.6 -0.8
v 0.8 2.7 -0.2
v 0.8 2.7 -0.3
v 0.8 2.7 -0.6
v 0.8 2.7 -0.7
v 0.8 2.8 0
v 0.8 2.8 -0.8
v 0 2 0
v 0 2.6 0
v 0 2.8 0
v 0.1 2.2 0
v 0.1 2.3 0
v 0.1 2.5 0
v 0.1 2.6 0
v 0.2 2.2 0
v 0.2 2.3 0
v 0.2 2.5 0
v 0.2 2.6 0
v 0.3 2.5 0
v 0.3 2.6 0
v 0.4 2.3 0
v 0.4 2.4 0
v 0.4 2.5 0
v 0.4 2.6 0
v 0.5 2.3 0
v 0.5 2.4 0
v 0.6 2.1 0
v 0.6 2.2 0
v 0.6 2.4 0
v 0.6 2.5 0
v 0.6 2.6 0
v 0.6 2.7 0
v 0.7 2.1 0
v 0.7 2.2 0
v 0.7 2.4 0
v 0.7 2.5 0
v 0.7 2.6 0
v 0.7 2.7 0
v 0.8 2 0
v 0.8 2.6 0
v 0.8 2.8 0
v 0 2 -0.8
v 0 2.6 -0.8
v 0 2.8 -0.8
v 0.1 2.2 -0.8
v 0.1 2.3 -0.8
v 0.1 2.5 -0.8
v 0.1 2.6 -0.8
v 0.2 2.2 -0.8
v 0.2 2.3 -0.8
v 0.2 2.5 -0.8
v 0.2 2.6 -0.8
v 0.4 2.3 -0.8
v 0.4 2.4 -0.8
v 0.5 2.3 -0.8
v 0.5 2.4 -0.8
v 0.5 2.5 -0.8
v 0.5 2.6 -0.8
v 0.5 2.7 -0.8
v 0.6 2.1 -0.8
v 0.6 2.2 -0.8
v 0.6 2.4 -0.8
v 0.6 2.5 -0.8
v 0.6 2.6 -0.8
v 0.6 2.7 -0.8
v 0.7 2.1 -0.8
v 0.7 2.2 -0.8
v 0.7 2.4 -0.8
v 0.7 2.5 -0.8
v 0.7 2.6 -0.8
v 0.8 2 -0.8
v 0.8 2.6 -0.8
v 0.8 2.8 -0.8
v 0 2 0
v 0.8 2 0
v 0.2 2 -0.1
v 0.3 2 -0.1
v 0.2 2 -0.2
v 0.3 2 -0.2
v 0.6 2 -0.3
v 0.7 2 -0.3
v 0.2 2 -0.4
v 0.3 2 -0.4
v 0.6 2 -0.4
v 0.7 2 -0.4
v 0.2 2 -0.5
v 0.3 2 -0.5
v 0.1 2 -0.6
v 0.2 2 -0.6
v 0.6 2 -0.6
v 0.7 2 -0.6
v 0.1 2 -0.7
v 0.2 2 -0.7
v 0.6 2 -0.7
v 0.7 2 -0.7
v 0 2 -0.8
v 0.8 2 -0.8
v 0 2.8 0
v 0.8 2.8 0
v 0.2 2.8 -0.1
v 0.3 2.8 -0.1
v 0.6 2.8 -0.1
v 0.7 2.8 -0.1
v 0.2 2.8 -0.2
v 0.3 2.8 -0.2
v 0.6 2.8 -0.2
v 0.7 2.8 -0.2
v 0.6 2.8 -0.3
v 0.7 2.8 -0.3
v 0.3 2.8 -0.4
v 0.4 2.8 -0.4
v 0.6 2.8 -0.4
v 0.7 2.8 -0.4
v 0.3 2.8 -0.5
v 0.4 2.8 -0.5
v 0.1 2.8 -0.6
v 0.2 2.8 -0.6
v 0.5 2.8 -0.6
v 0.6 2.8 -0.6
v 0.1 2.8 -0.7
v 0.2 2.8 -0.7
v 0.5 2.8 -0.7
v 0.6 2.8 -0.7
v 0 2.8 -0.8
v 0.8 2.8 -0.8

# faces
f 3/2/1 2/2/1 1/2/1
f 4/2/1 2/2/1 3/2/1
f 5/2/1 2/2/1 4/2/1
f 6/2/1 2/2/1 5/2/1
f 7/2/1 3/2/1 1/2/1
f 7/1/1 4/1/1 3/1/1
f 8/2/1 5/2/1 4/2/1
f 8/1/1 4/1/1 7/1/1
f 9/1/1 6/1/1 5/1/1
f 9/2/1 5/2/1 8/2/1
f 10/2/1 2/2/1 6/2/1
f 10/1/1 6/1/1 9/1/1
f 11/2/1 9/2/1 8/2/1
f 11/2/1 8/2/1 7/2/1
f 11/2/1 10/2/1 9/2/1
f 12/2/1 10/2/1 11/2/1
f 13/2/1 11/2/1 7/2/1
f 13/1/1 12/1/1 11/1/1
f 14/2/1 10/2/1 12/2/1
f 14/1/1 12/1/1 13/1/1
f 15/2/1 10/2/1 14/2/1
f 16/2/1 10/2/1 15/2/1
f 17/2/1 13/2/1 7/2/1
f 17/2/1 14/2/1 13/2/1
f 17/2/1 15/2/1 14/2/1
f 18/2/1 15/2/1 17/2/1
f 19/1/1 16/1/1 15/1/1
f 19/2/1 15/2/1 18/2/1
f 20/2/1 10/2/1 16/2/1
f 20/1/1 16/1/1 19/1/1
f 21/2/1 2/2/1 10/2/1
f 21/2/1 10/2/1 20/2/1
f 22/2/1 7/2/1 1/2/1
f 22/2/1 17/2/1 7/2/1
f 23/4/1 18/4/1 17/4/1
f 23/2/1 17/2/1 22/2/1
f 24/2/1 19/2/1 18/2/1
f 24/4/1 18/4/1 23/4/1
f 25/3/1 20/3/1 19/3/1
f 25/2/1 19/2/1 24/2/1
f 25/3/1 21/3/1 20/3/1
f 26/3/1 21/3/1 25/3/1
f 27/2/1 2/2/1 21/2/1
f 27/3/1 21/3/1 26/3/1
f 28/2/1 2/2/1 27/2/1
f 29/3/1 24/3/1 23/3/1
f 29/4/1 26/4/1 25/4/1
f 29/3/1 23/3/1 22/3/1
f 29/3/1 25/3/1 24/3/1
f 30/3/1 28/3/1 27/3/1
f 30/4/1 26/4/1 29/4/1
f 30/3/1 27/3/1 26/3/1
f 31/3/1 29/3/1 22/3/1
f 31/3/1 30/3/1 29/3/1
f 32/3/1 28/3/1 30/3/1
f 32/3/1 30/3/1 31/3/1
f 33/2/2 34/2/2 35/2/2
f 35/2/2 34/2/2 36/2/2
f 36/2/2 34/2/2 37/2/2
f 37/2/2 34/2/2 38/2/2
f 33/2/2 35/2/2 39/2/2
f 35/1/2 36/1/2 39/1/2
f 36/2/2 37/2/2 40/2/2
f 39/1/2 36/1/2 40/1/2
f 37/1/2 38/1/2 41/1/2
f 40/2/2 37/2/2 41/2/2
f 38/2/2 34/2/2 42/2/2
f 41/1/2 38/1/2 42/1/2
f 40/2/2 41/2/2 43/2/2
f 39/2/2 40/2/2 43/2/2
f 41/2/2 42/2/2 43/2/2
f 43/2/2 42/2/2 44/2/2
f 39/2/2 43/2/2 45/2/2
f 43/1/2 44/1/2 45/1/2
f 44/2/2 42/2/2 46/2/2
f 45/1/2 44/1/2 46/1/2
f 46/2/2 42/2/2 47/2/2
f 47/2/2 42/2/2 48/2/2
f 39/2/2 45/2/2 49/2/2
f 45/2/2 46/2/2 49/2/2
f 46/2/2 47/2/2 49/2/2
f 49/2/2 47/2/2 50/2/2
f 47/1/2 48/1/2 51/1/2
f 50/2/2 47/2/2 51/2/2
f 48/2/2 42/2/2 52/2/2
f 51/1/2 48/1/2 52/1/2
f 42/2/2 34/2/2 53/2/2
f 52/2/2 42/2/2 53/2/2
f 33/2/2 39/2/2 54/2/2
f 39/2/2 49/2/2 54/2/2
f 49/3/2 50/3/2 55/3/2
f 54/2/2 49/2/2 55/2/2
f 50/2/2 51/2/2 56/2/2
f 55/3/2 50/3/2 56/3/2
f 51/3/2 52/3/2 57/3/2
f 56/2/2 51/2/2 57/2/2
f 53/2/2 34/2/2 58/2/2
f 52/4/2 53/4/2 58/4/2
f 58/2/2 34/2/2 59/2/2
f 55/4/2 56/4/2 60/4/2
f 54/3/2 55/3/2 60/3/2
f 56/3/2 57/3/2 61/3/2
f 60/4/2 56/4/2 61/4/2
f 57/3/2 52/3/2 62/3/2
f 61/3/2 57/3/2 62/3/2
f 52/4/2 58/4/2 62/4/2
f 58/3/2 59/3/2 63/3/2
f 62/4/2 58/4/2 63/4/2
f 60/3/2 61/3/2 64/3/2
f 61/3/2 62/3/2 64/3/2
f 62/3/2 63/3/2 64/3/2
f 54/3/2 60/3/2 64/3/2
f 63/3/2 59/3/2 65/3/2
f 64/3/2 63/3/2 65/3/2
f 69/2/3 67/2/3 66/2/3
f 70/2/3 67/2/3 69/2/3
f 71/2/3 67/2/3 70/2/3
f 72/3/3 68/3/3 67/3/3
f 72/2/3 67/2/3 71/2/3
f 73/2/3 69/2/3 66/2/3
f 73/1/3 70/1/3 69/1/3
f 74/2/3 71/2/3 70/2/3
f 74/1/3 70/1/3 73/1/3
f 75/4/3 72/4/3 71/4/3
f 75/2/3 71/2/3 74/2/3
f 76/3/3 68/3/3 72/3/3
f 76/4/3 72/4/3 75/4/3
f 77/2/3 75/2/3 74/2/3
f 77/2/3 74/2/3 73/2/3
f 77/3/3 76/3/3 75/3/3
f 78/3/3 68/3/3 76/3/3
f 78/3/3 76/3/3 77/3/3
f 79/2/3 77/2/3 73/2/3
f 80/2/3 77/2/3 79/2/3
f 81/4/3 78/4/3 77/4/3
f 81/2/3 77/2/3 80/2/3
f 82/3/3 68/3/3 78/3/3
f 82/4/3 78/4/3 81/4/3
f 83/1/3 80/1/3 79/1/3
f 83/2/3 79/2/3 73/2/3
f 84/2/3 81/2/3 80/2/3
f 84/1/3 80/1/3 83/1/3
f 84/2/3 82/2/3 81/2/3
f 85/2/3 73/2/3 66/2/3
f 85/2/3 83/2/3 73/2/3
f 85/2/3 84/2/3 83/2/3
f 86/2/3 84/2/3 85/2/3
f 87/2/3 82/2/3 84/2/3
f 87/2/3 84/2/3 86/2/3
f 88/2/3 82/2/3 87/2/3
f 89/3/3 68/3/3 82/3/3
f 89/2/3 82/2/3 88/2/3
f 90/3/3 68/3/3 89/3/3
f 91/1/3 86/1/3 85/1/3
f 91/2/3 85/2/3 66/2/3
f 92/2/3 87/2/3 86/2/3
f 92/1/3 86/1/3 91/1/3
f 93/1/3 88/1/3 87/1/3
f 93/2/3 87/2/3 92/2/3
f 94/3/3 89/3/3 88/3/3
f 94/1/3 88/1/3 93/1/3
f 95/4/3 90/4/3 89/4/3
f 95/3/3 89/3/3 94/3/3
f 96/3/3 68/3/3 90/3/3
f 96/4/3 90/4/3 95/4/3
f 97/2/3 95/2/3 94/2/3
f 97/2/3 92/2/3 91/2/3
f 97/2/3 94/2/3 93/2/3
f 97/2/3 93/2/3 92/2/3
f 97/2/3 91/2/3 66/2/3
f 98/3/3 96/3/3 95/3/3
f 98/2/3 95/2/3 97/2/3
f 99/3/3 68/3/3 96/3/3
f 99/3/3 96/3/3 98/3/3
f 100/2/4 101/2/4 103/2/4
f 103/2/4 101/2/4 104/2/4
f 104/2/4 101/2/4 105/2/4
f 101/3/4 102/3/4 106/3/4
f 105/2/4 101/2/4 106/2/4
f 100/2/4 103/2/4 107/2/4
f 103/1/4 104/1/4 107/1/4
f 104/2/4 105/2/4 108/2/4
f 107/1/4 104/1/4 108/1/4
f 105/4/4 106/4/4 109/4/4
f 108/2/4 105/2/4 109/2/4
f 106/3/4 102/3/4 110/3/4
f 109/4/4 106/4/4 110/4/4
f 108/2/4 109/2/4 111/2/4
f 107/2/4 108/2/4 111/2/4
f 109/2/4 110/2/4 111/2/4
f 111/2/4 110/2/4 112/2/4
f 107/2/4 111/2/4 113/2/4
f 111/1/4 112/1/4 113/1/4
f 112/2/4 110/2/4 114/2/4
f 113/1/4 112/1/4 114/1/4
f 114/2/4 110/2/4 115/2/4
f 110/3/4 102/3/4 116/3/4
f 115/2/4 110/2/4 116/2/4
f 116/3/4 102/3/4 117/3/4
f 100/2/4 107/2/4 118/2/4
f 114/2/4 115/2/4 118/2/4
f 107/2/4 113/2/4 118/2/4
f 113/2/4 114/2/4 118/2/4
f 118/2/4 115/2/4 119/2/4
f 119/2/4 115/2/4 120/2/4
f 115/3/4 116/3/4 121/3/4
f 120/2/4 115/2/4 121/2/4
f 116/4/4 117/4/4 122/4/4
f 121/3/4 116/3/4 122/3/4
f 117/3/4 102/3/4 123/3/4
f 122/4/4 117/4/4 123/4/4
f 100/2/4 118/2/4 124/2/4
f 118/1/4 119/1/4 124/1/4
f 119/2/4 120/2/4 125/2/4
f 124/1/4 119/1/4 125/1/4
f 120/1/4 121/1/4 126/1/4
f 125/2/4 120/2/4 126/2/4
f 121/3/4 122/3/4 127/3/4
f 126/1/4 121/1/4 127/1/4
f 122/3/4 123/3/4 127/3/4
f 127/3/4 123/3/4 128/3/4
f 125/2/4 126/2/4 129/2/4
f 124/2/4 125/2/4 129/2/4
f 127/2/4 128/2/4 129/2/4
f 126/2/4 127/2/4 129/2/4
f 100/2/4 124/2/4 129/2/4
f 128/3/4 123/3/4 130/3/4
f 129/2/4 128/2/4 130/2/4
f 123/3/4 102/3/4 131/3/4
f 130/3/4 123/3/4 131/3/4
f 134/2/5 133/2/5 132/2/5
f 135/2/5 133/2/5 134/2/5
f 136/2/5 134/2/5 132/2/5
f 136/1/5 135/1/5 134/1/5
f 137/2/5 133/2/5 135/2/5
f 137/1/5 135/1/5 136/1/5
f 138/2/5 137/2/5 136/2/5
f 138/2/5 133/2/5 137/2/5
f 139/2/5 133/2/5 138/2/5
f 140/2/5 136/2/5 132/2/5
f 140/2/5 138/2/5 136/2/5
f 141/2/5 138/2/5 140/2/5
f 142/1/5 139/1/5 138/1/5
f 142/2/5 138/2/5 141/2/5
f 143/2/5 133/2/5 139/2/5
f 143/1/5 139/1/5 142/1/5
f 144/1/5 141/1/5 140/1/5
f 144/2/5 140/2/5 132/2/5
f 145/2/5 142/2/5 141/2/5
f 145/1/5 141/1/5 144/1/5
f 145/2/5 143/2/5 142/2/5
f 146/2/5 144/2/5 132/2/5
f 146/2/5 145/2/5 144/2/5
f 147/2/5 145/2/5 146/2/5
f 148/2/5 143/2/5 145/2/5
f 148/2/5 145/2/5 147/2/5
f 149/2/5 133/2/5 143/2/5
f 149/2/5 143/2/5 148/2/5
f 150/1/5 147/1/5 146/1/5
f 150/2/5 146/2/5 132/2/5
f 151/2/5 148/2/5 147/2/5
f 151/1/5 147/1/5 150/1/5
f 152/1/5 149/1/5 148/1/5
f 152/2/5 148/2/5 151/2/5
f 153/2/5 133/2/5 149/2/5
f 153/1/5 149/1/5 152/1/5
f 154/2/5 152/2/5 151/2/5
f 154/2/5 150/2/5 132/2/5
f 154/2/5 153/2/5 152/2/5
f 154/2/5 151/2/5 150/2/5
f 155/2/5 133/2/5 153/2/5
f 155/2/5 153/2/5 154/2/5
f 156/3/6 157/3/6 158/3/6
f 158/3/6 157/3/6 159/3/6
f 159/3/6 157/3/6 160/3/6
f 160/3/6 157/3/6 161/3/6
f 156/3/6 158/3/6 162/3/6
f 158/4/6 159/4/6 162/4/6
f 159/3/6 160/3/6 163/3/6
f 162/4/6 159/4/6 163/4/6
f 160/4/6 161/4/6 164/4/6
f 163/3/6 160/3/6 164/3/6
f 161/3/6 157/3/6 165/3/6
f 164/4/6 161/4/6 165/4/6
f 163/3/6 164/3/6 166/3/6
f 162/3/6 163/3/6 166/3/6
f 164/3/6 165/3/6 166/3/6
f 165/3/6 157/3/6 167/3/6
f 166/3/6 165/3/6 167/3/6
f 162/3/6 166/3/6 168/3/6
f 168/3/6 166/3/6 169/3/6
f 166/4/6 167/4/6 170/4/6
f 169/3/6 166/3/6 170/3/6
f 167/3/6 157/3/6 171/3/6
f 170/4/6 167/4/6 171/4/6
f 168/4/6 169/4/6 172/4/6
f 162/3/6 168/3/6 172/3/6
f 169/3/6 170/3/6 173/3/6
f 172/4/6 169/4/6 173/4/6
f 170/3/6 171/3/6 173/3/6
f 162/3/6 172/3/6 174/3/6
f 156/3/6 162/3/6 174/3/6
f 172/3/6 173/3/6 174/3/6
f 174/3/6 173/3/6 175/3/6
f 173/3/6 171/3/6 176/3/6
f 175/3/6 173/3/6 176/3/6
f 176/3/6 171/3/6 177/3/6
f 174/4/6 175/4/6 178/4/6
f 156/3/6 174/3/6 178/3/6
f 175/3/6 176/3/6 179/3/6
f 178/4/6 175/4/6 179/4/6
f 176/4/6 177/4/6 180/4/6
f 179/3/6 176/3/6 180/3/6
f 177/3/6 171/3/6 181/3/6
f 180/4/6 177/4/6 181/4/6
f 179/3/6 180/3/6 182/3/6
f 178/3/6 179/3/6 182/3/6
f 180/3/6 181/3/6 182/3/6
f 156/3/6 178/3/6 182/3/6
f 181/3/6 171/3/6 183/3/6
f 182/3/6 181/3/6 183/3/6
f 171/3/6 157/3/6 183/3/6
