# MagicaVoxel @ Ephtracy

# group
o 

# material
mtllib ArauzMini.mtl
usemtl palette

# normals
vn -1 0 0
vn 1 0 0
vn 0 0 1
vn 0 0 -1
vn 0 -1 0
vn 0 1 0

# texcoords
vt 0.0449219 0.5
vt 0.0605469 0.5
vt 0.205078 0.5
vt 0.208984 0.5
vt 0.615234 0.5
vt 0.845703 0.5
vt 0.861328 0.5
vt 0.865234 0.5
vt 0.939453 0.5
vt 0.958984 0.5
vt 0.982422 0.5
vt 0.986328 0.5
vt 0.994141 0.5

# verts
v 0 3.1 0
v 0 3.1 -0.8
v 0 3.3 0
v 0 3.3 -0.8
v 0.1 2.7 -0.1
v 0.1 2.7 -0.7
v 0.1 3.1 -0.1
v 0.1 3.1 -0.7
v 0.1 3.3 -0.1
v 0.1 3.3 -0.7
v 0.1 3.4 -0.1
v 0.1 3.4 -0.7
v 0.3 2.3 -0.2
v 0.3 2.3 -0.6
v 0.3 2.7 -0.2
v 0.3 2.7 -0.6
v 0.4 2 -0.2
v 0.4 2 -0.3
v 0.4 2 -0.5
v 0.4 2 -0.6
v 0.4 2.1 -0.2
v 0.4 2.1 -0.3
v 0.4 2.1 -0.5
v 0.4 2.1 -0.6
v 0.4 2.3 -0.1
v 0.4 2.3 -0.2
v 0.4 2.3 -0.3
v 0.4 2.3 -0.5
v 0.4 2.3 -0.6
v 0.4 2.3 -0.7
v 0.4 2.4 -0.1
v 0.4 2.4 -0.2
v 0.4 2.4 -0.6
v 0.4 2.4 -0.7
v 0.4 2.6 -0.1
v 0.4 2.6 -0.2
v 0.4 2.6 -0.6
v 0.4 2.6 -0.7
v 0.4 2.9 0
v 0.4 2.9 -0.1
v 0.4 2.9 -0.7
v 0.4 2.9 -0.8
v 0.4 3 -0.1
v 0.4 3 -0.7
v 0.4 3.1 0
v 0.4 3.1 -0.1
v 0.4 3.1 -0.7
v 0.4 3.1 -0.8
v 0.5 2.8 0
v 0.5 2.8 -0.1
v 0.5 2.8 -0.7
v 0.5 2.8 -0.8
v 0.5 2.9 0
v 0.5 2.9 -0.1
v 0.5 2.9 -0.7
v 0.5 2.9 -0.8
v 0.6 2.7 0
v 0.6 2.7 -0.1
v 0.6 2.7 -0.7
v 0.6 2.7 -0.8
v 0.6 2.8 0
v 0.6 2.8 -0.1
v 0.6 2.8 -0.7
v 0.6 2.8 -0.8
v 0.6 3.3 0
v 0.6 3.3 -0.1
v 0.6 3.3 -0.7
v 0.6 3.3 -0.8
v 0.6 3.4 0
v 0.6 3.4 -0.1
v 0.6 3.4 -0.7
v 0.6 3.4 -0.8
v 0.6 3.5 0
v 0.6 3.5 -0.1
v 0.6 3.5 -0.7
v 0.6 3.5 -0.8
v 0.7 2.8 0
v 0.7 2.8 -0.1
v 0.7 2.8 -0.7
v 0.7 2.8 -0.8
v 0.7 2.9 0
v 0.7 2.9 -0.1
v 0.7 2.9 -0.7
v 0.7 2.9 -0.8
v 0.5 2 -0.2
v 0.5 2 -0.3
v 0.5 2 -0.5
v 0.5 2 -0.6
v 0.5 2.1 -0.2
v 0.5 2.1 -0.3
v 0.5 2.1 -0.5
v 0.5 2.1 -0.6
v 0.5 2.3 -0.1
v 0.5 2.3 -0.2
v 0.5 2.3 -0.3
v 0.5 2.3 -0.5
v 0.5 2.3 -0.6
v 0.5 2.3 -0.7
v 0.5 2.4 -0.1
v 0.5 2.4 -0.2
v 0.5 2.4 -0.6
v 0.5 2.4 -0.7
v 0.5 2.6 -0.1
v 0.5 2.6 -0.2
v 0.5 2.6 -0.6
v 0.5 2.6 -0.7
v 0.6 2.3 -0.2
v 0.6 2.3 -0.6
v 0.6 2.5 -0.4
v 0.6 2.5 -0.5
v 0.6 2.6 -0.3
v 0.6 2.6 -0.4
v 0.6 2.6 -0.5
v 0.6 2.7 -0.2
v 0.6 2.7 -0.3
v 0.6 2.7 -0.5
v 0.6 2.7 -0.6
v 0.6 2.8 0
v 0.6 2.8 -0.1
v 0.6 2.8 -0.7
v 0.6 2.8 -0.8
v 0.6 2.9 0
v 0.6 2.9 -0.1
v 0.6 2.9 -0.7
v 0.6 2.9 -0.8
v 0.7 2.8 -0.1
v 0.7 2.8 -0.2
v 0.7 2.8 -0.3
v 0.7 2.8 -0.5
v 0.7 2.8 -0.6
v 0.7 2.8 -0.7
v 0.7 2.9 -0.1
v 0.7 2.9 -0.2
v 0.7 2.9 -0.6
v 0.7 2.9 -0.7
v 0.7 3 -0.2
v 0.7 3 -0.6
v 0.7 3.1 0
v 0.7 3.1 -0.1
v 0.7 3.1 -0.2
v 0.7 3.1 -0.3
v 0.7 3.1 -0.5
v 0.7 3.1 -0.6
v 0.7 3.1 -0.7
v 0.7 3.1 -0.8
v 0.7 3.2 0
v 0.7 3.2 -0.1
v 0.7 3.2 -0.2
v 0.7 3.2 -0.3
v 0.7 3.2 -0.5
v 0.7 3.2 -0.6
v 0.7 3.2 -0.7
v 0.7 3.2 -0.8
v 0.7 3.4 -0.3
v 0.7 3.4 -0.5
v 0.8 2.7 0
v 0.8 2.7 -0.1
v 0.8 2.7 -0.3
v 0.8 2.7 -0.5
v 0.8 2.7 -0.7
v 0.8 2.7 -0.8
v 0.8 2.8 -0.1
v 0.8 2.8 -0.3
v 0.8 2.8 -0.5
v 0.8 2.8 -0.7
v 0.8 2.9 -0.1
v 0.8 2.9 -0.2
v 0.8 2.9 -0.6
v 0.8 2.9 -0.7
v 0.8 3 0
v 0.8 3 -0.1
v 0.8 3 -0.2
v 0.8 3 -0.6
v 0.8 3 -0.7
v 0.8 3 -0.8
v 0.8 3.1 0
v 0.8 3.1 -0.1
v 0.8 3.1 -0.2
v 0.8 3.1 -0.6
v 0.8 3.1 -0.7
v 0.8 3.1 -0.8
v 0.8 3.2 0
v 0.8 3.2 -0.3
v 0.8 3.2 -0.5
v 0.8 3.2 -0.8
v 0.8 3.3 0
v 0.8 3.3 -0.2
v 0.8 3.3 -0.6
v 0.8 3.3 -0.8
v 0.8 3.4 -0.1
v 0.8 3.4 -0.2
v 0.8 3.4 -0.3
v 0.8 3.4 -0.5
v 0.8 3.4 -0.6
v 0.8 3.4 -0.7
v 0.8 3.5 0
v 0.8 3.5 -0.1
v 0.8 3.5 -0.7
v 0.8 3.5 -0.8
v 0 3.1 0
v 0 3.3 0
v 0.1 3.2 0
v 0.1 3.3 0
v 0.2 3.1 0
v 0.2 3.2 0
v 0.4 2.9 0
v 0.4 3.1 0
v 0.4 3.2 0
v 0.5 2.8 0
v 0.5 2.9 0
v 0.5 3.1 0
v 0.5 3.2 0
v 0.5 3.3 0
v 0.6 2.7 0
v 0.6 2.8 0
v 0.6 2.9 0
v 0.6 3 0
v 0.6 3.1 0
v 0.6 3.2 0
v 0.6 3.3 0
v 0.6 3.4 0
v 0.6 3.5 0
v 0.7 2.7 0
v 0.7 2.8 0
v 0.7 2.9 0
v 0.7 3 0
v 0.7 3.1 0
v 0.7 3.2 0
v 0.7 3.3 0
v 0.7 3.4 0
v 0.8 2.7 0
v 0.8 3 0
v 0.8 3.1 0
v 0.8 3.2 0
v 0.8 3.3 0
v 0.8 3.5 0
v 0.1 2.7 -0.1
v 0.1 3.1 -0.1
v 0.1 3.3 -0.1
v 0.1 3.4 -0.1
v 0.2 2.7 -0.1
v 0.2 2.9 -0.1
v 0.2 3.1 -0.1
v 0.3 2.9 -0.1
v 0.3 3 -0.1
v 0.4 2.3 -0.1
v 0.4 2.4 -0.1
v 0.4 2.6 -0.1
v 0.4 2.9 -0.1
v 0.4 3 -0.1
v 0.4 3.1 -0.1
v 0.5 2.3 -0.1
v 0.5 2.4 -0.1
v 0.5 2.6 -0.1
v 0.5 2.8 -0.1
v 0.5 2.9 -0.1
v 0.5 3.3 -0.1
v 0.5 3.4 -0.1
v 0.6 2.7 -0.1
v 0.6 2.8 -0.1
v 0.6 2.9 -0.1
v 0.6 3.3 -0.1
v 0.6 3.4 -0.1
v 0.7 2.8 -0.1
v 0.7 2.9 -0.1
v 0.3 2.3 -0.2
v 0.3 2.7 -0.2
v 0.4 2 -0.2
v 0.4 2.1 -0.2
v 0.4 2.3 -0.2
v 0.4 2.4 -0.2
v 0.4 2.6 -0.2
v 0.5 2 -0.2
v 0.5 2.1 -0.2
v 0.5 2.3 -0.2
v 0.5 2.4 -0.2
v 0.5 2.6 -0.2
v 0.6 2.3 -0.2
v 0.6 2.7 -0.2
v 0.4 2 -0.5
v 0.4 2.1 -0.5
v 0.4 2.3 -0.5
v 0.5 2 -0.5
v 0.5 2.1 -0.5
v 0.5 2.3 -0.5
v 0.7 3.2 -0.5
v 0.7 3.4 -0.5
v 0.8 3.2 -0.5
v 0.8 3.4 -0.5
v 0.7 3 -0.6
v 0.7 3.1 -0.6
v 0.8 3 -0.6
v 0.8 3.1 -0.6
v 0.6 3.4 -0.7
v 0.6 3.5 -0.7
v 0.7 2.8 -0.7
v 0.7 2.9 -0.7
v 0.8 2.8 -0.7
v 0.8 2.9 -0.7
v 0.8 3.4 -0.7
v 0.8 3.5 -0.7
v 0.6 3.4 -0.1
v 0.6 3.5 -0.1
v 0.7 2.8 -0.1
v 0.7 2.9 -0.1
v 0.8 2.8 -0.1
v 0.8 2.9 -0.1
v 0.8 3.4 -0.1
v 0.8 3.5 -0.1
v 0.7 3 -0.2
v 0.7 3.1 -0.2
v 0.8 3 -0.2
v 0.8 3.1 -0.2
v 0.4 2 -0.3
v 0.4 2.1 -0.3
v 0.4 2.3 -0.3
v 0.5 2 -0.3
v 0.5 2.1 -0.3
v 0.5 2.3 -0.3
v 0.7 3.2 -0.3
v 0.7 3.4 -0.3
v 0.8 3.2 -0.3
v 0.8 3.4 -0.3
v 0.3 2.3 -0.6
v 0.3 2.7 -0.6
v 0.4 2 -0.6
v 0.4 2.1 -0.6
v 0.4 2.3 -0.6
v 0.4 2.4 -0.6
v 0.4 2.6 -0.6
v 0.5 2 -0.6
v 0.5 2.1 -0.6
v 0.5 2.3 -0.6
v 0.5 2.4 -0.6
v 0.5 2.6 -0.6
v 0.6 2.3 -0.6
v 0.6 2.7 -0.6
v 0.1 2.7 -0.7
v 0.1 3.1 -0.7
v 0.1 3.3 -0.7
v 0.1 3.4 -0.7
v 0.2 2.7 -0.7
v 0.2 2.9 -0.7
v 0.2 3.1 -0.7
v 0.3 2.9 -0.7
v 0.3 3 -0.7
v 0.4 2.3 -0.7
v 0.4 2.4 -0.7
v 0.4 2.6 -0.7
v 0.4 2.9 -0.7
v 0.4 3 -0.7
v 0.4 3.1 -0.7
v 0.5 2.3 -0.7
v 0.5 2.4 -0.7
v 0.5 2.6 -0.7
v 0.5 2.8 -0.7
v 0.5 2.9 -0.7
v 0.5 3.3 -0.7
v 0.5 3.4 -0.7
v 0.6 2.7 -0.7
v 0.6 2.8 -0.7
v 0.6 2.9 -0.7
v 0.6 3.3 -0.7
v 0.6 3.4 -0.7
v 0.7 2.8 -0.7
v 0.7 2.9 -0.7
v 0 3.1 -0.8
v 0 3.3 -0.8
v 0.1 3.2 -0.8
v 0.1 3.3 -0.8
v 0.2 3.1 -0.8
v 0.2 3.2 -0.8
v 0.4 2.9 -0.8
v 0.4 3.1 -0.8
v 0.4 3.2 -0.8
v 0.5 2.8 -0.8
v 0.5 2.9 -0.8
v 0.5 3.1 -0.8
v 0.5 3.2 -0.8
v 0.5 3.3 -0.8
v 0.6 2.7 -0.8
v 0.6 2.8 -0.8
v 0.6 2.9 -0.8
v 0.6 3 -0.8
v 0.6 3.1 -0.8
v 0.6 3.2 -0.8
v 0.6 3.3 -0.8
v 0.6 3.4 -0.8
v 0.6 3.5 -0.8
v 0.7 2.7 -0.8
v 0.7 2.8 -0.8
v 0.7 2.9 -0.8
v 0.7 3 -0.8
v 0.7 3.1 -0.8
v 0.7 3.2 -0.8
v 0.7 3.3 -0.8
v 0.7 3.4 -0.8
v 0.8 2.7 -0.8
v 0.8 3 -0.8
v 0.8 3.1 -0.8
v 0.8 3.2 -0.8
v 0.8 3.3 -0.8
v 0.8 3.5 -0.8
v 0.4 2 -0.2
v 0.5 2 -0.2
v 0.4 2 -0.3
v 0.5 2 -0.3
v 0.4 2 -0.5
v 0.5 2 -0.5
v 0.4 2 -0.6
v 0.5 2 -0.6
v 0.4 2.3 -0.1
v 0.5 2.3 -0.1
v 0.3 2.3 -0.2
v 0.4 2.3 -0.2
v 0.5 2.3 -0.2
v 0.6 2.3 -0.2
v 0.4 2.3 -0.3
v 0.5 2.3 -0.3
v 0.4 2.3 -0.5
v 0.5 2.3 -0.5
v 0.3 2.3 -0.6
v 0.4 2.3 -0.6
v 0.5 2.3 -0.6
v 0.6 2.3 -0.6
v 0.4 2.3 -0.7
v 0.5 2.3 -0.7
v 0.6 2.7 0
v 0.7 2.7 0
v 0.8 2.7 0
v 0.1 2.7 -0.1
v 0.2 2.7 -0.1
v 0.6 2.7 -0.1
v 0.7 2.7 -0.1
v 0.8 2.7 -0.1
v 0.3 2.7 -0.2
v 0.6 2.7 -0.2
v 0.6 2.7 -0.3
v 0.7 2.7 -0.3
v 0.8 2.7 -0.3
v 0.6 2.7 -0.5
v 0.7 2.7 -0.5
v 0.8 2.7 -0.5
v 0.3 2.7 -0.6
v 0.6 2.7 -0.6
v 0.1 2.7 -0.7
v 0.2 2.7 -0.7
v 0.6 2.7 -0.7
v 0.7 2.7 -0.7
v 0.8 2.7 -0.7
v 0.6 2.7 -0.8
v 0.7 2.7 -0.8
v 0.8 2.7 -0.8
v 0.5 2.8 0
v 0.6 2.8 0
v 0.5 2.8 -0.1
v 0.6 2.8 -0.1
v 0.5 2.8 -0.7
v 0.6 2.8 -0.7
v 0.5 2.8 -0.8
v 0.6 2.8 -0.8
v 0.4 2.9 0
v 0.5 2.9 0
v 0.6 2.9 0
v 0.7 2.9 0
v 0.4 2.9 -0.1
v 0.5 2.9 -0.1
v 0.6 2.9 -0.1
v 0.7 2.9 -0.1
v 0.8 2.9 -0.1
v 0.7 2.9 -0.2
v 0.8 2.9 -0.2
v 0.7 2.9 -0.6
v 0.8 2.9 -0.6
v 0.4 2.9 -0.7
v 0.5 2.9 -0.7
v 0.6 2.9 -0.7
v 0.7 2.9 -0.7
v 0.8 2.9 -0.7
v 0.4 2.9 -0.8
v 0.5 2.9 -0.8
v 0.6 2.9 -0.8
v 0.7 2.9 -0.8
v 0 3.1 0
v 0.2 3.1 0
v 0.4 3.1 0
v 0.1 3.1 -0.1
v 0.2 3.1 -0.1
v 0.4 3.1 -0.1
v 0.1 3.1 -0.7
v 0.2 3.1 -0.7
v 0.4 3.1 -0.7
v 0 3.1 -0.8
v 0.2 3.1 -0.8
v 0.4 3.1 -0.8
v 0.7 3.2 0
v 0.8 3.2 0
v 0.7 3.2 -0.1
v 0.7 3.2 -0.2
v 0.7 3.2 -0.3
v 0.8 3.2 -0.3
v 0.7 3.2 -0.5
v 0.8 3.2 -0.5
v 0.7 3.2 -0.6
v 0.7 3.2 -0.7
v 0.7 3.2 -0.8
v 0.8 3.2 -0.8
v 0.4 2.6 -0.1
v 0.5 2.6 -0.1
v 0.4 2.6 -0.2
v 0.5 2.6 -0.2
v 0.4 2.6 -0.6
v 0.5 2.6 -0.6
v 0.4 2.6 -0.7
v 0.5 2.6 -0.7
v 0.6 2.8 0
v 0.7 2.8 0
v 0.6 2.8 -0.1
v 0.7 2.8 -0.1
v 0.8 2.8 -0.1
v 0.7 2.8 -0.2
v 0.7 2.8 -0.3
v 0.8 2.8 -0.3
v 0.7 2.8 -0.5
v 0.8 2.8 -0.5
v 0.7 2.8 -0.6
v 0.6 2.8 -0.7
v 0.7 2.8 -0.7
v 0.8 2.8 -0.7
v 0.6 2.8 -0.8
v 0.7 2.8 -0.8
v 0.7 3 -0.2
v 0.8 3 -0.2
v 0.7 3 -0.6
v 0.8 3 -0.6
v 0.7 3.1 0
v 0.8 3.1 0
v 0.7 3.1 -0.1
v 0.8 3.1 -0.1
v 0.7 3.1 -0.2
v 0.8 3.1 -0.2
v 0.7 3.1 -0.6
v 0.8 3.1 -0.6
v 0.7 3.1 -0.7
v 0.8 3.1 -0.7
v 0.7 3.1 -0.8
v 0.8 3.1 -0.8
v 0 3.3 0
v 0.1 3.3 0
v 0.5 3.3 0
v 0.6 3.3 0
v 0.1 3.3 -0.1
v 0.5 3.3 -0.1
v 0.6 3.3 -0.1
v 0.1 3.3 -0.7
v 0.5 3.3 -0.7
v 0.6 3.3 -0.7
v 0 3.3 -0.8
v 0.1 3.3 -0.8
v 0.5 3.3 -0.8
v 0.6 3.3 -0.8
v 0.1 3.4 -0.1
v 0.5 3.4 -0.1
v 0.6 3.4 -0.1
v 0.8 3.4 -0.1
v 0.5 3.4 -0.2
v 0.7 3.4 -0.2
v 0.8 3.4 -0.2
v 0.6 3.4 -0.3
v 0.7 3.4 -0.3
v 0.8 3.4 -0.3
v 0.6 3.4 -0.5
v 0.7 3.4 -0.5
v 0.8 3.4 -0.5
v 0.5 3.4 -0.6
v 0.7 3.4 -0.6
v 0.8 3.4 -0.6
v 0.1 3.4 -0.7
v 0.5 3.4 -0.7
v 0.6 3.4 -0.7
v 0.8 3.4 -0.7
v 0.6 3.5 0
v 0.8 3.5 0
v 0.6 3.5 -0.1
v 0.8 3.5 -0.1
v 0.6 3.5 -0.7
v 0.8 3.5 -0.7
v 0.6 3.5 -0.8
v 0.8 3.5 -0.8

# faces
f 3/12/1 2/12/1 1/12/1
f 4/12/1 2/12/1 3/12/1
f 7/13/1 6/13/1 5/13/1
f 8/13/1 6/13/1 7/13/1
f 11/13/1 10/13/1 9/13/1
f 12/13/1 10/13/1 11/13/1
f 15/13/1 14/13/1 13/13/1
f 16/13/1 14/13/1 15/13/1
f 21/10/1 18/10/1 17/10/1
f 22/10/1 18/10/1 21/10/1
f 23/10/1 20/10/1 19/10/1
f 24/10/1 20/10/1 23/10/1
f 26/13/1 22/13/1 21/13/1
f 27/13/1 22/13/1 26/13/1
f 28/13/1 24/13/1 23/13/1
f 29/13/1 24/13/1 28/13/1
f 31/2/1 26/2/1 25/2/1
f 32/2/1 26/2/1 31/2/1
f 33/2/1 30/2/1 29/2/1
f 34/2/1 30/2/1 33/2/1
f 35/10/1 32/10/1 31/10/1
f 36/10/1 32/10/1 35/10/1
f 37/10/1 34/10/1 33/10/1
f 38/10/1 34/10/1 37/10/1
f 43/7/1 40/7/1 39/7/1
f 44/7/1 42/7/1 41/7/1
f 45/7/1 43/7/1 39/7/1
f 46/7/1 43/7/1 45/7/1
f 47/7/1 42/7/1 44/7/1
f 48/7/1 42/7/1 47/7/1
f 53/6/1 50/6/1 49/6/1
f 54/6/1 50/6/1 53/6/1
f 55/6/1 52/6/1 51/6/1
f 56/6/1 52/6/1 55/6/1
f 61/7/1 58/7/1 57/7/1
f 62/7/1 58/7/1 61/7/1
f 63/7/1 60/7/1 59/7/1
f 64/7/1 60/7/1 63/7/1
f 69/8/1 66/8/1 65/8/1
f 70/8/1 66/8/1 69/8/1
f 71/8/1 68/8/1 67/8/1
f 72/8/1 68/8/1 71/8/1
f 73/4/1 70/4/1 69/4/1
f 74/4/1 70/4/1 73/4/1
f 75/4/1 72/4/1 71/4/1
f 76/4/1 72/4/1 75/4/1
f 81/10/1 78/10/1 77/10/1
f 82/10/1 78/10/1 81/10/1
f 83/10/1 80/10/1 79/10/1
f 84/10/1 80/10/1 83/10/1
f 85/10/2 86/10/2 89/10/2
f 89/10/2 86/10/2 90/10/2
f 87/10/2 88/10/2 91/10/2
f 91/10/2 88/10/2 92/10/2
f 89/13/2 90/13/2 94/13/2
f 94/13/2 90/13/2 95/13/2
f 91/13/2 92/13/2 96/13/2
f 96/13/2 92/13/2 97/13/2
f 93/2/2 94/2/2 99/2/2
f 99/2/2 94/2/2 100/2/2
f 97/2/2 98/2/2 101/2/2
f 101/2/2 98/2/2 102/2/2
f 99/10/2 100/10/2 103/10/2
f 103/10/2 100/10/2 104/10/2
f 101/10/2 102/10/2 105/10/2
f 105/10/2 102/10/2 106/10/2
f 107/13/2 108/13/2 109/13/2
f 109/13/2 108/13/2 110/13/2
f 107/13/2 109/13/2 111/13/2
f 109/6/2 110/6/2 112/6/2
f 111/13/2 109/13/2 112/13/2
f 110/13/2 108/13/2 113/13/2
f 112/6/2 110/6/2 113/6/2
f 107/13/2 111/13/2 114/13/2
f 111/10/2 112/10/2 115/10/2
f 114/13/2 111/13/2 115/13/2
f 112/10/2 113/10/2 115/10/2
f 113/13/2 108/13/2 116/13/2
f 115/10/2 113/10/2 116/10/2
f 116/13/2 108/13/2 117/13/2
f 118/6/2 119/6/2 122/6/2
f 122/6/2 119/6/2 123/6/2
f 120/6/2 121/6/2 124/6/2
f 124/6/2 121/6/2 125/6/2
f 126/10/2 127/10/2 132/10/2
f 127/13/2 128/13/2 133/13/2
f 132/10/2 127/10/2 133/10/2
f 128/13/2 129/13/2 133/13/2
f 129/13/2 130/13/2 133/13/2
f 130/10/2 131/10/2 134/10/2
f 133/13/2 130/13/2 134/13/2
f 134/10/2 131/10/2 135/10/2
f 136/6/2 137/6/2 140/6/2
f 140/6/2 137/6/2 141/6/2
f 141/6/2 137/6/2 142/6/2
f 142/6/2 137/6/2 143/6/2
f 138/13/2 139/13/2 146/13/2
f 139/1/2 140/1/2 147/1/2
f 146/13/2 139/13/2 147/13/2
f 140/13/2 141/13/2 148/13/2
f 147/1/2 140/1/2 148/1/2
f 141/6/2 142/6/2 149/6/2
f 148/13/2 141/13/2 149/13/2
f 142/13/2 143/13/2 150/13/2
f 149/6/2 142/6/2 150/6/2
f 143/3/2 144/3/2 151/3/2
f 150/13/2 143/13/2 151/13/2
f 144/13/2 145/13/2 152/13/2
f 151/3/2 144/3/2 152/3/2
f 152/13/2 145/13/2 153/13/2
f 149/6/2 150/6/2 154/6/2
f 154/6/2 150/6/2 155/6/2
f 156/10/2 157/10/2 162/10/2
f 157/8/2 158/8/2 162/8/2
f 158/7/2 159/7/2 163/7/2
f 162/8/2 158/8/2 163/8/2
f 159/8/2 160/8/2 164/8/2
f 163/7/2 159/7/2 164/7/2
f 160/10/2 161/10/2 165/10/2
f 164/8/2 160/8/2 165/8/2
f 156/10/2 162/10/2 166/10/2
f 165/10/2 161/10/2 169/10/2
f 156/10/2 166/10/2 170/10/2
f 166/8/2 167/8/2 171/8/2
f 170/10/2 166/10/2 171/10/2
f 167/7/2 168/7/2 172/7/2
f 171/8/2 167/8/2 172/8/2
f 168/8/2 169/8/2 173/8/2
f 172/7/2 168/7/2 173/7/2
f 169/10/2 161/10/2 174/10/2
f 173/8/2 169/8/2 174/8/2
f 174/10/2 161/10/2 175/10/2
f 170/8/2 171/8/2 176/8/2
f 171/7/2 172/7/2 177/7/2
f 176/8/2 171/8/2 177/8/2
f 177/7/2 172/7/2 178/7/2
f 173/7/2 174/7/2 179/7/2
f 174/8/2 175/8/2 180/8/2
f 179/7/2 174/7/2 180/7/2
f 180/8/2 175/8/2 181/8/2
f 182/7/2 183/7/2 186/7/2
f 186/7/2 183/7/2 187/7/2
f 184/7/2 185/7/2 188/7/2
f 188/7/2 185/7/2 189/7/2
f 186/4/2 187/4/2 190/4/2
f 187/7/2 183/7/2 191/7/2
f 190/4/2 187/4/2 191/4/2
f 191/7/2 183/7/2 192/7/2
f 184/7/2 188/7/2 193/7/2
f 188/4/2 189/4/2 194/4/2
f 193/7/2 188/7/2 194/7/2
f 194/4/2 189/4/2 195/4/2
f 186/4/2 190/4/2 196/4/2
f 196/4/2 190/4/2 197/4/2
f 195/4/2 189/4/2 198/4/2
f 198/4/2 189/4/2 199/4/2
f 202/12/3 201/12/3 200/12/3
f 203/12/3 201/12/3 202/12/3
f 204/12/3 202/12/3 200/12/3
f 205/11/3 203/11/3 202/11/3
f 205/12/3 202/12/3 204/12/3
f 207/11/3 205/11/3 204/11/3
f 208/11/3 203/11/3 205/11/3
f 208/11/3 205/11/3 207/11/3
f 210/7/3 207/7/3 206/7/3
f 211/8/3 208/8/3 207/8/3
f 211/7/3 207/7/3 210/7/3
f 212/11/3 203/11/3 208/11/3
f 212/8/3 208/8/3 211/8/3
f 213/11/3 203/11/3 212/11/3
f 215/6/3 211/6/3 210/6/3
f 215/6/3 210/6/3 209/6/3
f 216/6/3 211/6/3 215/6/3
f 217/6/3 211/6/3 216/6/3
f 218/7/3 212/7/3 211/7/3
f 218/6/3 211/6/3 217/6/3
f 219/8/3 213/8/3 212/8/3
f 219/7/3 212/7/3 218/7/3
f 220/8/3 213/8/3 219/8/3
f 223/7/3 215/7/3 214/7/3
f 224/7/3 215/7/3 223/7/3
f 225/7/3 217/7/3 216/7/3
f 226/6/3 218/6/3 217/6/3
f 226/7/3 217/7/3 225/7/3
f 227/13/3 219/13/3 218/13/3
f 227/6/3 218/6/3 226/6/3
f 228/8/3 220/8/3 219/8/3
f 228/13/3 219/13/3 227/13/3
f 228/8/3 221/8/3 220/8/3
f 229/8/3 221/8/3 228/8/3
f 230/4/3 222/4/3 221/4/3
f 230/8/3 221/8/3 229/8/3
f 231/10/3 226/10/3 225/10/3
f 231/10/3 225/10/3 224/10/3
f 231/10/3 224/10/3 223/10/3
f 232/8/3 227/8/3 226/8/3
f 232/10/3 226/10/3 231/10/3
f 233/8/3 227/8/3 232/8/3
f 234/7/3 229/7/3 228/7/3
f 235/4/3 230/4/3 229/4/3
f 235/7/3 229/7/3 234/7/3
f 236/4/3 222/4/3 230/4/3
f 236/4/3 230/4/3 235/4/3
f 241/13/3 238/13/3 237/13/3
f 242/13/3 238/13/3 241/13/3
f 243/13/3 238/13/3 242/13/3
f 244/2/3 242/2/3 241/2/3
f 244/13/3 243/13/3 242/13/3
f 245/13/3 243/13/3 244/13/3
f 249/2/3 244/2/3 241/2/3
f 249/2/3 245/2/3 244/2/3
f 250/13/3 243/13/3 245/13/3
f 250/2/3 245/2/3 249/2/3
f 251/13/3 243/13/3 250/13/3
f 252/2/3 247/2/3 246/2/3
f 253/10/3 248/10/3 247/10/3
f 253/2/3 247/2/3 252/2/3
f 254/10/3 248/10/3 253/10/3
f 255/2/3 249/2/3 241/2/3
f 256/2/3 249/2/3 255/2/3
f 257/13/3 240/13/3 239/13/3
f 258/13/3 240/13/3 257/13/3
f 259/2/3 255/2/3 241/2/3
f 260/2/3 255/2/3 259/2/3
f 262/4/3 258/4/3 257/4/3
f 263/4/3 258/4/3 262/4/3
f 264/10/3 261/10/3 260/10/3
f 265/10/3 261/10/3 264/10/3
f 270/13/3 267/13/3 266/13/3
f 271/13/3 267/13/3 270/13/3
f 272/13/3 267/13/3 271/13/3
f 273/10/3 269/10/3 268/10/3
f 274/13/3 270/13/3 269/13/3
f 274/10/3 269/10/3 273/10/3
f 275/13/3 270/13/3 274/13/3
f 277/13/3 267/13/3 272/13/3
f 278/13/3 276/13/3 275/13/3
f 278/13/3 277/13/3 276/13/3
f 279/13/3 267/13/3 277/13/3
f 279/13/3 277/13/3 278/13/3
f 283/10/3 281/10/3 280/10/3
f 284/13/3 282/13/3 281/13/3
f 284/10/3 281/10/3 283/10/3
f 285/13/3 282/13/3 284/13/3
f 288/7/3 287/7/3 286/7/3
f 289/7/3 287/7/3 288/7/3
f 292/7/3 291/7/3 290/7/3
f 293/7/3 291/7/3 292/7/3
f 298/10/3 297/10/3 296/10/3
f 299/10/3 297/10/3 298/10/3
f 300/4/3 295/4/3 294/4/3
f 301/4/3 295/4/3 300/4/3
f 304/10/4 305/10/4 306/10/4
f 306/10/4 305/10/4 307/10/4
f 302/4/4 303/4/4 308/4/4
f 308/4/4 303/4/4 309/4/4
f 310/7/4 311/7/4 312/7/4
f 312/7/4 311/7/4 313/7/4
f 314/10/4 315/10/4 317/10/4
f 315/13/4 316/13/4 318/13/4
f 317/10/4 315/10/4 318/10/4
f 318/13/4 316/13/4 319/13/4
f 320/7/4 321/7/4 322/7/4
f 322/7/4 321/7/4 323/7/4
f 324/13/4 325/13/4 328/13/4
f 328/13/4 325/13/4 329/13/4
f 329/13/4 325/13/4 330/13/4
f 326/10/4 327/10/4 331/10/4
f 327/13/4 328/13/4 332/13/4
f 331/10/4 327/10/4 332/10/4
f 332/13/4 328/13/4 333/13/4
f 330/13/4 325/13/4 335/13/4
f 333/13/4 334/13/4 336/13/4
f 334/13/4 335/13/4 336/13/4
f 335/13/4 325/13/4 337/13/4
f 336/13/4 335/13/4 337/13/4
f 338/13/4 339/13/4 342/13/4
f 342/13/4 339/13/4 343/13/4
f 343/13/4 339/13/4 344/13/4
f 342/2/4 343/2/4 345/2/4
f 343/13/4 344/13/4 345/13/4
f 345/13/4 344/13/4 346/13/4
f 342/2/4 345/2/4 350/2/4
f 345/2/4 346/2/4 350/2/4
f 346/13/4 344/13/4 351/13/4
f 350/2/4 346/2/4 351/2/4
f 351/13/4 344/13/4 352/13/4
f 347/2/4 348/2/4 353/2/4
f 348/10/4 349/10/4 354/10/4
f 353/2/4 348/2/4 354/2/4
f 354/10/4 349/10/4 355/10/4
f 342/2/4 350/2/4 356/2/4
f 356/2/4 350/2/4 357/2/4
f 340/13/4 341/13/4 358/13/4
f 358/13/4 341/13/4 359/13/4
f 342/2/4 356/2/4 360/2/4
f 360/2/4 356/2/4 361/2/4
f 358/4/4 359/4/4 363/4/4
f 363/4/4 359/4/4 364/4/4
f 361/10/4 362/10/4 365/10/4
f 365/10/4 362/10/4 366/10/4
f 367/12/4 368/12/4 369/12/4
f 369/12/4 368/12/4 370/12/4
f 367/12/4 369/12/4 371/12/4
f 369/11/4 370/11/4 372/11/4
f 371/12/4 369/12/4 372/12/4
f 371/11/4 372/11/4 374/11/4
f 372/11/4 370/11/4 375/11/4
f 374/11/4 372/11/4 375/11/4
f 373/7/4 374/7/4 377/7/4
f 374/8/4 375/8/4 378/8/4
f 377/7/4 374/7/4 378/7/4
f 375/11/4 370/11/4 379/11/4
f 378/8/4 375/8/4 379/8/4
f 379/11/4 370/11/4 380/11/4
f 377/6/4 378/6/4 382/6/4
f 376/6/4 377/6/4 382/6/4
f 382/6/4 378/6/4 383/6/4
f 383/6/4 378/6/4 384/6/4
f 378/7/4 379/7/4 385/7/4
f 384/6/4 378/6/4 385/6/4
f 379/8/4 380/8/4 386/8/4
f 385/7/4 379/7/4 386/7/4
f 386/8/4 380/8/4 387/8/4
f 381/7/4 382/7/4 390/7/4
f 390/7/4 382/7/4 391/7/4
f 383/7/4 384/7/4 392/7/4
f 384/6/4 385/6/4 393/6/4
f 392/7/4 384/7/4 393/7/4
f 385/13/4 386/13/4 394/13/4
f 393/6/4 385/6/4 394/6/4
f 386/8/4 387/8/4 395/8/4
f 394/13/4 386/13/4 395/13/4
f 387/8/4 388/8/4 395/8/4
f 395/8/4 388/8/4 396/8/4
f 388/4/4 389/4/4 397/4/4
f 396/8/4 388/8/4 397/8/4
f 392/10/4 393/10/4 398/10/4
f 391/10/4 392/10/4 398/10/4
f 390/10/4 391/10/4 398/10/4
f 393/8/4 394/8/4 399/8/4
f 398/10/4 393/10/4 399/10/4
f 399/8/4 394/8/4 400/8/4
f 395/7/4 396/7/4 401/7/4
f 396/4/4 397/4/4 402/4/4
f 401/7/4 396/7/4 402/7/4
f 397/4/4 389/4/4 403/4/4
f 402/4/4 397/4/4 403/4/4
f 406/10/5 405/10/5 404/10/5
f 407/10/5 405/10/5 406/10/5
f 410/10/5 409/10/5 408/10/5
f 411/10/5 409/10/5 410/10/5
f 415/2/5 413/2/5 412/2/5
f 416/2/5 413/2/5 415/2/5
f 418/13/5 415/13/5 414/13/5
f 419/13/5 417/13/5 416/13/5
f 420/13/5 418/13/5 414/13/5
f 420/13/5 419/13/5 418/13/5
f 421/13/5 417/13/5 419/13/5
f 421/13/5 419/13/5 420/13/5
f 422/13/5 420/13/5 414/13/5
f 423/13/5 420/13/5 422/13/5
f 424/13/5 417/13/5 421/13/5
f 425/13/5 417/13/5 424/13/5
f 426/2/5 424/2/5 423/2/5
f 427/2/5 424/2/5 426/2/5
f 433/7/5 429/7/5 428/7/5
f 434/10/5 430/10/5 429/10/5
f 434/7/5 429/7/5 433/7/5
f 435/10/5 430/10/5 434/10/5
f 436/2/5 433/2/5 432/2/5
f 436/2/5 434/2/5 433/2/5
f 437/2/5 434/2/5 436/2/5
f 438/2/5 434/2/5 437/2/5
f 439/8/5 435/8/5 434/8/5
f 439/2/5 434/2/5 438/2/5
f 440/8/5 435/8/5 439/8/5
f 441/2/5 439/2/5 438/2/5
f 442/7/5 440/7/5 439/7/5
f 442/2/5 439/2/5 441/2/5
f 443/7/5 440/7/5 442/7/5
f 444/2/5 436/2/5 432/2/5
f 445/2/5 442/2/5 441/2/5
f 446/13/5 432/13/5 431/13/5
f 447/2/5 445/2/5 444/2/5
f 447/13/5 432/13/5 446/13/5
f 447/2/5 444/2/5 432/2/5
f 448/2/5 442/2/5 445/2/5
f 448/2/5 445/2/5 447/2/5
f 449/8/5 443/8/5 442/8/5
f 449/2/5 442/2/5 448/2/5
f 450/8/5 443/8/5 449/8/5
f 451/7/5 449/7/5 448/7/5
f 452/10/5 450/10/5 449/10/5
f 452/7/5 449/7/5 451/7/5
f 453/10/5 450/10/5 452/10/5
f 456/6/5 455/6/5 454/6/5
f 457/6/5 455/6/5 456/6/5
f 460/6/5 459/6/5 458/6/5
f 461/6/5 459/6/5 460/6/5
f 466/7/5 463/7/5 462/7/5
f 467/7/5 463/7/5 466/7/5
f 468/7/5 465/7/5 464/7/5
f 469/7/5 465/7/5 468/7/5
f 471/8/5 470/8/5 469/8/5
f 472/8/5 470/8/5 471/8/5
f 473/7/5 472/7/5 471/7/5
f 474/7/5 472/7/5 473/7/5
f 478/8/5 474/8/5 473/8/5
f 479/8/5 474/8/5 478/8/5
f 480/7/5 476/7/5 475/7/5
f 481/7/5 476/7/5 480/7/5
f 482/7/5 478/7/5 477/7/5
f 483/7/5 478/7/5 482/7/5
f 487/12/5 485/12/5 484/12/5
f 488/11/5 486/11/5 485/11/5
f 488/12/5 485/12/5 487/12/5
f 489/11/5 486/11/5 488/11/5
f 490/12/5 487/12/5 484/12/5
f 493/12/5 490/12/5 484/12/5
f 493/12/5 491/12/5 490/12/5
f 494/11/5 492/11/5 491/11/5
f 494/12/5 491/12/5 493/12/5
f 495/11/5 492/11/5 494/11/5
f 498/7/5 497/7/5 496/7/5
f 499/7/5 497/7/5 498/7/5
f 500/7/5 497/7/5 499/7/5
f 501/7/5 497/7/5 500/7/5
f 504/7/5 503/7/5 502/7/5
f 505/7/5 503/7/5 504/7/5
f 506/7/5 503/7/5 505/7/5
f 507/7/5 503/7/5 506/7/5
f 508/10/6 509/10/6 510/10/6
f 510/10/6 509/10/6 511/10/6
f 512/10/6 513/10/6 514/10/6
f 514/10/6 513/10/6 515/10/6
f 516/7/6 517/7/6 518/7/6
f 518/7/6 517/7/6 519/7/6
f 519/8/6 520/8/6 521/8/6
f 521/8/6 520/8/6 522/8/6
f 522/8/6 520/8/6 523/8/6
f 522/7/6 523/7/6 524/7/6
f 524/7/6 523/7/6 525/7/6
f 524/8/6 525/8/6 526/8/6
f 526/8/6 525/8/6 528/8/6
f 528/8/6 525/8/6 529/8/6
f 527/7/6 528/7/6 530/7/6
f 530/7/6 528/7/6 531/7/6
f 532/7/6 533/7/6 534/7/6
f 534/7/6 533/7/6 535/7/6
f 536/8/6 537/8/6 538/8/6
f 538/8/6 537/8/6 539/8/6
f 538/7/6 539/7/6 540/7/6
f 540/7/6 539/7/6 541/7/6
f 542/7/6 543/7/6 544/7/6
f 544/7/6 543/7/6 545/7/6
f 544/8/6 545/8/6 546/8/6
f 546/8/6 545/8/6 547/8/6
f 548/12/6 549/12/6 552/12/6
f 549/11/6 550/11/6 552/11/6
f 550/8/6 551/8/6 553/8/6
f 552/11/6 550/11/6 553/11/6
f 553/8/6 551/8/6 554/8/6
f 548/12/6 552/12/6 555/12/6
f 548/12/6 555/12/6 558/12/6
f 555/11/6 556/11/6 559/11/6
f 558/12/6 555/12/6 559/12/6
f 556/8/6 557/8/6 560/8/6
f 559/11/6 556/11/6 560/11/6
f 560/8/6 557/8/6 561/8/6
f 562/13/6 563/13/6 566/13/6
f 564/4/6 565/4/6 566/4/6
f 563/4/6 564/4/6 566/4/6
f 566/4/6 565/4/6 567/4/6
f 567/4/6 565/4/6 568/4/6
f 566/13/6 567/13/6 569/13/6
f 567/7/6 568/7/6 570/7/6
f 569/13/6 567/13/6 570/13/6
f 570/7/6 568/7/6 571/7/6
f 566/13/6 569/13/6 572/13/6
f 569/6/6 570/6/6 572/6/6
f 572/6/6 570/6/6 573/6/6
f 562/13/6 566/13/6 575/13/6
f 566/13/6 572/13/6 575/13/6
f 572/13/6 573/13/6 575/13/6
f 573/7/6 574/7/6 576/7/6
f 575/13/6 573/13/6 576/13/6
f 576/7/6 574/7/6 577/7/6
f 562/13/6 575/13/6 578/13/6
f 575/4/6 576/4/6 579/4/6
f 578/13/6 575/13/6 579/13/6
f 576/4/6 577/4/6 579/4/6
f 579/4/6 577/4/6 580/4/6
f 580/4/6 577/4/6 581/4/6
f 582/4/6 583/4/6 584/4/6
f 584/4/6 583/4/6 585/4/6
f 586/4/6 587/4/6 588/4/6
f 588/4/6 587/4/6 589/4/6
